<svg xmlns="http://www.w3.org/2000/svg" viewBox="0 0 15.875 20.108" height="76" width="60"><defs><clipPath id="a" clipPathUnits="userSpaceOnUse"><path fill="red" stroke-width=".702" d="M-.09-.054h15.875v20.108H-.09z"/></clipPath></defs><g clip-path="url(#a)" transform="translate(.09 .054)" fill-rule="evenodd"><path d="M11.845 10l-2 4h-4l-2-4 2-4h4zM11.845 0l-2 4h-4l-2-4 2-4h4zM11.845 20l-2 4h-4l-2-4 2-4h4zM4 15l-2 4h-4l-2-4 2-4h4zM4 5L2 9h-4l-2-4 2-4h4zM19.695 5l-2 4h-4l-2-4 2-4h4zM19.695 15l-2 4h-4l-2-4 2-4h4z"/></g></svg>