<?xml version="1.0" encoding="UTF-8" standalone="no"?>
<svg
   xmlns:dc="http://purl.org/dc/elements/1.1/"
   xmlns:cc="http://creativecommons.org/ns#"
   xmlns:rdf="http://www.w3.org/1999/02/22-rdf-syntax-ns#"
   xmlns:svg="http://www.w3.org/2000/svg"
   xmlns="http://www.w3.org/2000/svg"
   xmlns:sodipodi="http://sodipodi.sourceforge.net/DTD/sodipodi-0.dtd"
   xmlns:inkscape="http://www.inkscape.org/namespaces/inkscape"
   width="60"
   height="76"
   viewBox="0 0 15.875 20.108333"
   version="1.1"
   id="svg8"
   inkscape:version="1.0rc1 (09960d6, 2020-04-09)"
   sodipodi:docname="hex-grid-invert.svg">
  <defs
     id="defs2" />
  <sodipodi:namedview
     id="base"
     pagecolor="#ffffff"
     bordercolor="#666666"
     borderopacity="1.0"
     inkscape:pageopacity="0.0"
     inkscape:pageshadow="2"
     inkscape:zoom="6.8778797"
     inkscape:cx="20.366422"
     inkscape:cy="33.874048"
     inkscape:document-units="px"
     inkscape:current-layer="layer1"
     inkscape:document-rotation="0"
     showgrid="false"
     inkscape:window-width="1440"
     inkscape:window-height="874"
     inkscape:window-x="0"
     inkscape:window-y="26"
     inkscape:window-maximized="0"
     units="px" />
  <metadata
     id="metadata5">
    <rdf:RDF>
      <cc:Work
         rdf:about="">
        <dc:format>image/svg+xml</dc:format>
        <dc:type
           rdf:resource="http://purl.org/dc/dcmitype/StillImage" />
        <dc:title></dc:title>
      </cc:Work>
    </rdf:RDF>
  </metadata>
  <g
     inkscape:label="Layer 1"
     inkscape:groupmode="layer"
     id="layer1">
    <path
       transform="scale(0.26458333)"
       d="M 0 0 L 0 3.984375 L 7.8984375 3.984375 L 15.458984 19.101562 L 7.8984375 34.220703 L 0 34.220703 L 0 41.779297 L 7.8984375 41.779297 L 15.458984 56.898438 L 7.8984375 72.015625 L 0 72.015625 L 0 76 L 14.974609 76 L 14.873047 75.794922 L 22.431641 60.677734 L 37.548828 60.677734 L 45.109375 75.794922 L 45.005859 76 L 60 76 L 60 72.015625 L 52.101562 72.015625 L 44.541016 56.898438 L 52.101562 41.779297 L 60 41.779297 L 60 34.220703 L 52.101562 34.220703 L 44.541016 19.101562 L 52.101562 3.984375 L 60 3.984375 L 60 0 L 45.005859 0 L 45.109375 0.20507812 L 37.548828 15.322266 L 22.431641 15.322266 L 14.873047 0.20507812 L 14.974609 0 L 0 0 z M 22.431641 22.882812 L 37.548828 22.882812 L 45.109375 38 L 37.548828 53.117188 L 22.431641 53.117188 L 14.873047 38 L 22.431641 22.882812 z "
       style="fill:#000000;stroke-width:2.65316"
       id="rect33" />
  </g>
</svg>
