<svg xmlns="http://www.w3.org/2000/svg" viewBox="0 0 15.61 20.108" height="76" width="59"><g fill="#fff" fill-rule="evenodd" fill-opacity=".2"><path d="M12.542 10.054l-2.37 4.74H5.433l-2.37-4.74 2.37-4.74h4.74zM12.542.054l-2.37 4.74H5.433L3.063.054l2.37-4.74h4.74zM12.542 20.054l-2.37 4.74H5.433l-2.37-4.74 2.37-4.74h4.74zM4.83 15.054l-2.37 4.74h-4.74l-2.37-4.74 2.37-4.74h4.74zM4.962 5.054l-2.37 4.74h-4.74l-2.37-4.74 2.37-4.74h4.74zM20.26 5.054l-2.37 4.74h-4.74l-2.369-4.74 2.37-4.74h4.74zM20.128 15.054l-2.37 4.74h-4.74l-2.37-4.74 2.37-4.74h4.74z"/></g></svg>