<?xml version="1.0" encoding="UTF-8" standalone="no"?>
<svg
   xmlns:dc="http://purl.org/dc/elements/1.1/"
   xmlns:cc="http://creativecommons.org/ns#"
   xmlns:rdf="http://www.w3.org/1999/02/22-rdf-syntax-ns#"
   xmlns:svg="http://www.w3.org/2000/svg"
   xmlns="http://www.w3.org/2000/svg"
   xmlns:sodipodi="http://sodipodi.sourceforge.net/DTD/sodipodi-0.dtd"
   xmlns:inkscape="http://www.inkscape.org/namespaces/inkscape"
   width="59"
   height="76"
   viewBox="0 0 15.610417 20.108333"
   version="1.1"
   id="svg8"
   inkscape:version="1.0rc1 (09960d6, 2020-04-09)"
   sodipodi:docname="hex-grid-invert.svg">
  <defs
     id="defs2" />
  <sodipodi:namedview
     id="base"
     pagecolor="#ffffff"
     bordercolor="#666666"
     borderopacity="1.0"
     inkscape:pageopacity="0.0"
     inkscape:pageshadow="2"
     inkscape:zoom="5.7631406"
     inkscape:cx="23.999515"
     inkscape:cy="37.014749"
     inkscape:document-units="px"
     inkscape:current-layer="layer1"
     inkscape:document-rotation="0"
     showgrid="false"
     inkscape:window-width="1440"
     inkscape:window-height="900"
     inkscape:window-x="0"
     inkscape:window-y="0"
     inkscape:window-maximized="0"
     units="px" />
  <metadata
     id="metadata5">
    <rdf:RDF>
      <cc:Work
         rdf:about="">
        <dc:format>image/svg+xml</dc:format>
        <dc:type
           rdf:resource="http://purl.org/dc/dcmitype/StillImage" />
        <dc:title></dc:title>
      </cc:Work>
    </rdf:RDF>
  </metadata>
  <g
     inkscape:label="Layer 1"
     inkscape:groupmode="layer"
     id="layer1">
    <path
       transform="scale(0.26458333)"
       d="M 0 0 L 0 1.1894531 L 9.796875 1.1894531 L 18.751953 19.101562 L 9.796875 37.015625 L 0 37.015625 L 0 38.984375 L 9.296875 38.984375 L 18.251953 56.898438 L 9.296875 74.810547 L 0 74.810547 L 0 76 L 11.681641 76 L 11.578125 75.794922 L 20.535156 57.882812 L 38.447266 57.882812 L 47.402344 75.794922 L 47.300781 76 L 59 76 L 59 74.810547 L 49.203125 74.810547 L 40.248047 56.898438 L 49.203125 38.984375 L 59 38.984375 L 59 37.015625 L 49.703125 37.015625 L 40.748047 19.101562 L 49.703125 1.1894531 L 59 1.1894531 L 59 0 L 47.300781 0 L 47.402344 0.20507812 L 38.447266 18.117188 L 20.535156 18.117188 L 11.578125 0.20507812 L 11.681641 0 L 0 0 z M 20.535156 20.087891 L 38.447266 20.087891 L 47.402344 38 L 38.447266 55.912109 L 20.535156 55.912109 L 11.578125 38 L 20.535156 20.087891 z "
       style="fill:#ffffff;stroke-width:2.63096;fill-opacity:0.25"
       id="rect33" />
  </g>
</svg>
