<svg xmlns="http://www.w3.org/2000/svg" viewBox="0 0 387.63 153.47"><g data-name="Layer 2"><g data-name="&lt;Layer&gt;" fill="#910c32" stroke="#910c32"><path d="M.68 87.07s-7.06 52 68.39 8.55c0 0 20-11.23 53.36 8.65 0 0 8.42 5.76 24.59 7.38H170S139.74 75.3 76.43 89.12c0 0-25.52 7.45-62 5.91.01-.03-12.08-.28-13.75-7.96zM348.24 17.89c-29.34 0-49.84 16.06-55.93 45.65a58 58 0 00-1.17 18.08h-32.45l12.81-62.21h-32.22l-18.18 88.26H291l3.14-15.24c5.46 11.09 17.57 16.76 35.26 16.76 29.34 0 50.1-15.55 56.3-45.65 6.13-29.54-8.12-45.65-37.46-45.65zm3.83 45.65c-2.07 9.48-5.51 24.4-18.25 24.4-11.55 0-9.8-14.92-7.84-24.4 1.69-8.22 6-24.4 17.89-24.4 12.26 0 9.77 16.18 8.2 24.4z"/><path d="M127.67 83a41 41 0 003.64-10.48c8.18-39.68-45.92-27-43.16-40.42 1.37-6.64 11.64-6.79 17.53-6.79a76 76 0 0128 5.17L139.1 4A149.14 149.14 0 00107.42.5C85.11.5 56 5.52 50.19 33.84 42 73.82 96 61.28 93.17 75.15c-1.06 5.16-9.46 7.08-18.29 7.08-11.23 0-23.09-2.36-32.28-6.79L39.82 89c24.77-.78 41.16-5 41.16-5 18.35-4.11 33.88-3.67 46.69-1zM191 17.89c-29.38 0-49.89 16.11-56 45.65-1.66 8.08-1.86 15.09-.71 21.06 25.19 7.16 38.13 22.52 39.75 24.56 28.33-.67 48.33-16.18 54.39-45.62S220.3 17.89 191 17.89zm3.82 45.65c-2.07 9.48-5.5 24.4-18.25 24.4-11.54 0-9.79-14.92-7.84-24.4 1.69-8.22 6-24.4 17.89-24.4 12.23 0 9.74 16.18 8.16 24.4zM140.2 130.54h2.59L139.41 147h7.44l-.46 2.38h-10.06zM158.75 130.54h2.54l4 18.84h-2.69l-.95-4.75h-8.8l-2.85 4.75h-2.85zm.82 2.91l-5.41 9h7.1zM171.24 130.54H176c3 0 5.21 1.18 5.21 4.4a4.67 4.67 0 01-3.67 4.69v.06c2 .75 2.8 1.81 2.8 3.86 0 2.64-1.88 5.83-7.34 5.83h-5.64zm-.85 16.62h2.41c2.44 0 4.85-.73 4.83-3.72 0-2.11-1.8-2.65-3.59-2.65h-2.34zm1.75-8.58h2.33c1.87 0 4.21-.86 4.18-3.32 0-2.19-1.87-2.51-3.61-2.51h-1.7zM193.61 130.21c4.56 0 7.26 2.84 7.26 7.64 0 6-3.36 11.85-9.85 11.85-4.93 0-7.52-2.78-7.52-8s3.5-11.49 10.11-11.49zm-2.49 17.12c4.41 0 7-5 7-9.1 0-3.62-1.54-5.64-4.62-5.64-4.39 0-7.31 4.4-7.31 9.2.03 3.35 1.7 5.54 4.93 5.54zM204.92 130.54h3.51c2.52 0 6.7 0 6.7 4.58a5.23 5.23 0 01-4.36 5.11c1.36.89 1.74 3.72 2.1 5.18l1 4h-2.71l-1.08-4.94c-.67-3-1.11-3.43-2.44-3.43h-2.28l-1.67 8.37h-2.59zm.92 8.09h2c1.82 0 4.54-.62 4.54-3.13 0-2-1-2.59-3-2.59H207zM226.26 130.54h2.54l3.95 18.84h-2.64l-1-4.75h-8.8l-2.87 4.75h-2.85zm.82 2.91l-5.41 9h7.1zM247.88 132.91h-5.56L239 149.38h-2.6l3.37-16.47h-5.57l.49-2.37h13.72zM257.17 130.21c4.56 0 7.26 2.84 7.26 7.64 0 6-3.36 11.85-9.85 11.85-4.93 0-7.52-2.78-7.52-8s3.54-11.49 10.11-11.49zm-2.49 17.12c4.41 0 7-5 7-9.1 0-3.62-1.54-5.64-4.62-5.64-4.39 0-7.31 4.4-7.31 9.2.03 3.35 1.7 5.54 4.93 5.54zM269.76 130.54h3.51c2.52 0 6.7 0 6.7 4.58a5.23 5.23 0 01-4.36 5.11c1.36.89 1.74 3.72 2.1 5.18l1 4H276l-1.08-4.94c-.67-3-1.1-3.43-2.44-3.43h-2.28l-1.67 8.37h-2.56zm.92 8.09h2c1.82 0 4.54-.62 4.54-3.13 0-2-1.05-2.59-3-2.59h-2.38zM285.1 130.54h2.59l-3.85 18.84h-2.59zM292.15 130.54h9.72l-.51 2.37h-7.08l-1.15 5.51h6.64l-.43 2.37h-6.72l-1.31 6.21h7.51l-.48 2.38h-10.11zM313.47 133.5a6 6 0 00-3.26-.91c-1.69 0-3.54.7-3.54 2.94 0 3.16 6.11 3.18 6.11 8.12a5.87 5.87 0 01-6.19 6 12.36 12.36 0 01-5-1.08l.82-2.48a7.32 7.32 0 003.77 1.19c2.72 0 3.88-1.79 3.88-3.35 0-3.83-6.11-3.16-6.11-8.4 0-3.42 3-5.37 5.93-5.37a10.8 10.8 0 014.31.89zM315.19 146.35h3.08L314.7 153h-2.41zM332.3 130.54h2.59L331 149.38h-2.59zM339.14 130.54h3.39l5.05 15.79h.06l3.18-15.79h2.43l-3.9 18.84H346l-5-15.66h-.05l-3.05 15.66h-2.46zM366.2 149.19a10.46 10.46 0 01-3.28.51c-4.77 0-8.41-2.64-8.41-8.61 0-4.62 3-10.88 10.75-10.88a11 11 0 014.25.87l-.74 2.32a8.44 8.44 0 00-3.46-.81c-5.44 0-8.08 4.21-8.08 8.64 0 4.13 2.61 6.1 6.1 6.1a8.26 8.26 0 003.21-.65zM369.49 146.35h2.87l-.59 3h-2.87z"/></g></g></svg>